<?xml version="1.0" encoding="iso-8859-1"?>
<!-- Generator: Adobe Illustrator 19.0.0, SVG Export Plug-In . SVG Version: 6.00 Build 0)  -->
<svg version="1.1" id="Layer_1" xmlns="http://www.w3.org/2000/svg" xmlns:xlink="http://www.w3.org/1999/xlink" x="0px" y="0px"
	 viewBox="0 0 512 512" style="enable-background:new 0 0 512 512;" xml:space="preserve">
<g fill="#fff">
	<g>
		<path d="M469.333,152.853v-40.512c0-26.645-21.696-48.341-48.341-48.341H261.035l-85.333-42.667H91.008
			c-26.645,0-48.341,21.696-48.341,48.341v83.179C17.963,161.195,0,184.341,0,211.819v216.363c0,34.453,28.011,62.485,62.485,62.485
			h387.008c34.475,0,62.507-28.032,62.507-62.485V211.819C512,184.341,494.037,161.195,469.333,152.853z M277.333,362.667H106.667
			c-11.797,0-21.333-9.557-21.333-21.333S94.869,320,106.667,320h170.667c11.797,0,21.333,9.557,21.333,21.333
			S289.131,362.667,277.333,362.667z M85.333,256c0-11.776,9.536-21.333,21.333-21.333h106.667c11.797,0,21.333,9.557,21.333,21.333
			s-9.536,21.333-21.333,21.333H106.667C94.869,277.333,85.333,267.776,85.333,256z M426.667,149.333H85.333V69.675
			c0-3.136,2.539-5.675,5.675-5.675h74.624l85.333,42.667h170.027c3.136,0,5.675,2.539,5.675,5.675V149.333z"/>
	</g>
</g>
</svg>
