<svg width="235" height="54" viewBox="0 0 235 54" fill="none" xmlns="http://www.w3.org/2000/svg">
<path d="M26.193 13.3595C25.9357 13.1022 25.4578 12.7529 24.7593 12.3118C24.0976 11.8706 23.2704 11.4479 22.2778 11.0435C21.322 10.6391 20.2743 10.2899 19.1347 9.99575C17.9951 9.6649 16.837 9.49946 15.6607 9.49946C13.602 9.49946 12.0396 9.88547 10.9735 10.6575C9.94415 11.4295 9.42948 12.514 9.42948 13.9109C9.42948 14.977 9.76034 15.8225 10.4221 16.4475C11.0838 17.0725 12.0764 17.6055 13.3998 18.0467C14.7232 18.4878 16.3775 18.9657 18.3627 19.4804C20.936 20.1053 23.1601 20.8773 25.035 21.7964C26.9466 22.6787 28.3987 23.8551 29.3913 25.3256C30.4206 26.7593 30.9353 28.6709 30.9353 31.0604C30.9353 33.1559 30.5493 34.9572 29.7773 36.4645C29.0053 37.935 27.9392 39.1297 26.579 40.0488C25.2188 40.9678 23.6748 41.6479 21.947 42.0891C20.2192 42.4935 18.3811 42.6956 16.4327 42.6956C14.4843 42.6956 12.5359 42.4935 10.5875 42.0891C8.63909 41.6847 6.76423 41.1149 4.96288 40.3796C3.16154 39.6076 1.50725 38.6886 0 37.6225L3.36373 31.0604C3.69459 31.3913 4.28278 31.8324 5.12831 32.3839C5.97384 32.8985 7.00318 33.4316 8.21633 33.983C9.42948 34.4977 10.7529 34.9388 12.1866 35.3065C13.6204 35.6741 15.0725 35.8579 16.5429 35.8579C18.6016 35.8579 20.164 35.5087 21.2301 34.8102C22.2962 34.1117 22.8293 33.1191 22.8293 31.8324C22.8293 30.6561 22.4065 29.737 21.561 29.0753C20.7154 28.4136 19.5391 27.8438 18.0318 27.3658C16.5246 26.8512 14.7416 26.2997 12.6829 25.7116C10.2199 25.0131 8.16119 24.2411 6.50689 23.3955C4.8526 22.5133 3.62107 21.4104 2.8123 20.087C2.00353 18.7635 1.59915 17.1092 1.59915 15.1241C1.59915 12.4404 2.22411 10.1979 3.47402 8.3966C4.76069 6.5585 6.48851 5.17992 8.65748 4.26087C10.8264 3.30505 13.2344 2.82714 15.8812 2.82714C17.7193 2.82714 19.4472 3.02934 21.0647 3.43372C22.719 3.8381 24.263 4.37115 25.6967 5.03287C27.1304 5.69459 28.4171 6.41145 29.5567 7.18345L26.193 13.3595Z" fill="white"/>
<path d="M33.876 33.7073C33.876 31.8324 34.3907 30.1965 35.42 28.7996C36.4861 27.3658 37.9566 26.263 39.8315 25.491C41.7063 24.719 43.8569 24.333 46.2832 24.333C47.4963 24.333 48.7279 24.4249 49.9778 24.6087C51.2277 24.7925 52.3122 25.0866 53.2312 25.491V23.947C53.2312 22.1089 52.6798 20.6935 51.5769 19.7009C50.5108 18.7084 48.9117 18.2121 46.7795 18.2121C45.1987 18.2121 43.6915 18.4878 42.2578 19.0392C40.824 19.5907 39.3168 20.3994 37.736 21.4655L35.3649 16.6129C37.2765 15.363 39.2249 14.4256 41.21 13.8006C43.2319 13.1757 45.3458 12.8632 47.5515 12.8632C51.6688 12.8632 54.8672 13.8925 57.1464 15.9512C59.4624 18.0099 60.6204 20.9509 60.6204 24.7741V33.983C60.6204 34.755 60.7491 35.3065 61.0064 35.6373C61.3005 35.9682 61.76 36.1704 62.385 36.2439V42.2545C61.7233 42.3648 61.1167 42.4567 60.5653 42.5302C60.0506 42.6037 59.6095 42.6405 59.2418 42.6405C57.7714 42.6405 56.6501 42.3097 55.8781 41.6479C55.1429 40.9862 54.6833 40.1774 54.4995 39.2216L54.3341 37.7328C53.0842 39.3503 51.5218 40.6002 49.6469 41.4825C47.7721 42.3648 45.8604 42.8059 43.912 42.8059C42.0004 42.8059 40.2726 42.4199 38.7286 41.6479C37.2213 40.8392 36.0266 39.7547 35.1443 38.3945C34.2988 36.9975 33.876 35.4351 33.876 33.7073ZM51.8527 35.1962C52.257 34.755 52.5879 34.3139 52.8452 33.8727C53.1026 33.4316 53.2312 33.0272 53.2312 32.6596V29.737C52.3489 29.3694 51.3931 29.0937 50.3638 28.9099C49.3345 28.6893 48.3603 28.579 47.4412 28.579C45.5296 28.579 43.9488 29.0018 42.6989 29.8473C41.4857 30.6561 40.8792 31.7405 40.8792 33.1007C40.8792 33.836 41.0814 34.5345 41.4857 35.1962C41.8901 35.8579 42.4783 36.391 43.2503 36.7953C44.0223 37.1997 44.9414 37.4019 46.0075 37.4019C47.1103 37.4019 48.1948 37.1997 49.2609 36.7953C50.327 36.3542 51.1909 35.8211 51.8527 35.1962Z" fill="white"/>
<path d="M84.8403 42.8059C82.5978 42.8059 80.6127 42.3096 78.8849 41.3171C77.1938 40.2877 75.8704 38.9092 74.9146 37.1813V54H67.5254V13.3595H73.9771V18.3224C75.08 16.6313 76.4769 15.3079 78.168 14.3521C79.8591 13.3595 81.7891 12.8632 83.958 12.8632C85.9064 12.8632 87.6894 13.2492 89.3069 14.0212C90.9612 14.7932 92.3949 15.8777 93.6081 17.2747C94.8212 18.6348 95.7587 20.2156 96.4204 22.017C97.1189 23.7815 97.4681 25.6932 97.4681 27.7519C97.4681 30.5458 96.9167 33.0824 95.8138 35.3616C94.7477 37.6409 93.2589 39.4606 91.3472 40.8208C89.4724 42.1442 87.3034 42.8059 84.8403 42.8059ZM82.3589 36.5196C83.4985 36.5196 84.5278 36.2807 85.4469 35.8027C86.366 35.3248 87.1563 34.6815 87.8181 33.8727C88.5165 33.0272 89.0312 32.0898 89.3621 31.0604C89.7297 29.9943 89.9135 28.8915 89.9135 27.7519C89.9135 26.5387 89.7113 25.4175 89.3069 24.3881C88.9393 23.3588 88.3879 22.4581 87.6526 21.6861C86.9174 20.8773 86.0535 20.2524 85.0609 19.8112C84.1051 19.3701 83.0574 19.1495 81.9177 19.1495C81.2193 19.1495 80.5024 19.2782 79.7672 19.5355C79.0687 19.7561 78.3886 20.087 77.7269 20.5281C77.0651 20.9692 76.4769 21.4839 75.9623 22.0721C75.4844 22.6603 75.1351 23.3036 74.9146 24.0021V30.7847C75.3557 31.8508 75.9439 32.825 76.6791 33.7073C77.4511 34.5896 78.3334 35.2881 79.326 35.8027C80.3186 36.2807 81.3295 36.5196 82.3589 36.5196Z" fill="white"/>
<path d="M119.789 42.8059C117.547 42.8059 115.562 42.3096 113.834 41.3171C112.143 40.2877 110.82 38.9092 109.864 37.1813V54H102.475V13.3595H108.926V18.3224C110.029 16.6313 111.426 15.3079 113.117 14.3521C114.808 13.3595 116.738 12.8632 118.907 12.8632C120.856 12.8632 122.639 13.2492 124.256 14.0212C125.91 14.7932 127.344 15.8777 128.557 17.2747C129.77 18.6348 130.708 20.2156 131.37 22.017C132.068 23.7815 132.417 25.6932 132.417 27.7519C132.417 30.5458 131.866 33.0824 130.763 35.3616C129.697 37.6409 128.208 39.4606 126.296 40.8208C124.421 42.1442 122.253 42.8059 119.789 42.8059ZM117.308 36.5196C118.448 36.5196 119.477 36.2807 120.396 35.8027C121.315 35.3248 122.105 34.6815 122.767 33.8727C123.466 33.0272 123.98 32.0898 124.311 31.0604C124.679 29.9943 124.863 28.8915 124.863 27.7519C124.863 26.5387 124.66 25.4175 124.256 24.3881C123.888 23.3588 123.337 22.4581 122.602 21.6861C121.867 20.8773 121.003 20.2524 120.01 19.8112C119.054 19.3701 118.007 19.1495 116.867 19.1495C116.168 19.1495 115.452 19.2782 114.716 19.5355C114.018 19.7561 113.338 20.087 112.676 20.5281C112.014 20.9692 111.426 21.4839 110.911 22.0721C110.434 22.6603 110.084 23.3036 109.864 24.0021V30.7847C110.305 31.8508 110.893 32.825 111.628 33.7073C112.4 34.5896 113.283 35.2881 114.275 35.8027C115.268 36.2807 116.279 36.5196 117.308 36.5196Z" fill="white"/>
<path d="M164.278 42.2545H156.889V26.0424C156.889 23.7999 156.448 22.1272 155.566 21.0244C154.72 19.9215 153.544 19.3701 152.037 19.3701C151.154 19.3701 150.217 19.6274 149.224 20.1421C148.232 20.6568 147.331 21.3736 146.522 22.2927C145.75 23.175 145.18 24.2043 144.813 25.3807V42.2545H137.424V2H144.813V18.7084C145.879 16.8703 147.331 15.4365 149.169 14.4072C151.007 13.3779 153.011 12.8632 155.18 12.8632C157.055 12.8632 158.58 13.1941 159.757 13.8558C160.933 14.4807 161.852 15.3446 162.514 16.4475C163.175 17.5136 163.635 18.7268 163.892 20.087C164.15 21.4104 164.278 22.789 164.278 24.2227V42.2545Z" fill="white"/>
<path d="M170.5 42.2545V13.3595L174.796 15.5L178.707 13.3595V42.2545H170.5Z" fill="white"/>
<path d="M201.963 19.7561C199.721 19.7561 197.717 20.1972 195.952 21.0795C194.188 21.9251 192.92 23.1566 192.148 24.7741V42.2545H184.758V13.3595H191.541V19.5355C192.57 17.5504 193.875 15.988 195.456 14.8484C197.037 13.7087 198.71 13.0838 200.474 12.9735C200.879 12.9735 201.191 12.9735 201.412 12.9735C201.632 12.9735 201.816 12.9919 201.963 13.0286V19.7561Z" fill="white"/>
<path d="M219.106 42.8059C216.79 42.8059 214.695 42.4199 212.82 41.6479C210.945 40.8392 209.346 39.7547 208.022 38.3945C206.699 36.9975 205.67 35.4167 204.934 33.6522C204.236 31.8508 203.887 29.9576 203.887 27.9724C203.887 25.2153 204.493 22.6971 205.706 20.4178C206.956 18.1386 208.721 16.3188 211 14.9586C213.316 13.5617 216.037 12.8632 219.161 12.8632C222.323 12.8632 225.025 13.5617 227.267 14.9586C229.51 16.3188 231.219 18.1386 232.396 20.4178C233.609 22.6603 234.215 25.0866 234.215 27.6967C234.215 28.1379 234.197 28.5974 234.16 29.0753C234.123 29.5164 234.087 29.8841 234.05 30.1782H211.717C211.864 31.6486 212.287 32.9353 212.985 34.0382C213.721 35.141 214.64 35.9866 215.742 36.5748C216.882 37.1262 218.095 37.4019 219.382 37.4019C220.852 37.4019 222.231 37.0527 223.518 36.3542C224.841 35.6189 225.742 34.6631 226.22 33.4867L232.561 35.2513C231.863 36.7218 230.852 38.0269 229.528 39.1665C228.242 40.3061 226.716 41.2068 224.951 41.8685C223.187 42.4935 221.238 42.8059 219.106 42.8059ZM211.552 25.491H226.661C226.514 24.0205 226.091 22.7522 225.392 21.6861C224.731 20.5832 223.848 19.7377 222.746 19.1495C221.643 18.5246 220.411 18.2121 219.051 18.2121C217.728 18.2121 216.514 18.5246 215.412 19.1495C214.345 19.7377 213.463 20.5832 212.765 21.6861C212.103 22.7522 211.699 24.0205 211.552 25.491Z" fill="white"/>
<path d="M174.5 0.5L178.707 3V8L174.796 10.198L170.5 8V3L174.5 0.5Z" fill="white"/>
</svg>
